<?xml version="1.0" encoding="utf-8"?>
<!-- Generator: Adobe Illustrator 21.0.0, SVG Export Plug-In . SVG Version: 6.00 Build 0)  -->
<svg version="1.1" id="Camada_1" xmlns="http://www.w3.org/2000/svg" xmlns:xlink="http://www.w3.org/1999/xlink" x="0px" y="0px"
	 viewBox="0 0 477.3 152.3" style="enable-background:new 0 0 477.3 152.3;" xml:space="preserve">
<style type="text/css">
	.st0{fill:#00427A;}
	.st1{fill:#ED1C24;}
	.st2{fill:#6C6D70;}
</style>
<path class="st0" d="M450,7.4c4.9,0,8.1,3.5,6.8,8.2c-1.3,4.7-6.3,8.3-11.2,8.3c-4.9,0-8.1-3.5-6.8-8.3C440,10.9,445,7.4,450,7.4
	 M445.9,22.6L445.9,22.6c4.2,0,8.2-3,9.3-7.1c1.1-3.9-1.4-7-5.5-7c-4.2,0-8.2,3-9.3,7C439.3,19.6,441.7,22.6,445.9,22.6 M445.6,10.8
	l-2.6,9.6h1.6l1.1-4.1h1.7l1.8,4.1h1.8l-1.9-4.2c1.6-0.2,3-0.9,3.5-2.6c0.5-1.8-0.4-2.8-2.9-2.8H445.6z M446,15.1L446,15.1h1.7
	c1.4,0,2.8-0.1,3.2-1.6c0.3-1.3-0.8-1.5-1.9-1.5h-2.2L446,15.1z"/>
<path class="st1" d="M28.6,68.3c-0.6,13.8,8.8,18,21,18c8.6,0,18.5-4.1,18.5-13.7c0-9.5-12.5-11.4-24.6-15.1
	C31.2,53.7,19,48.1,19,31.4C19,9.7,38.7,1.2,57.5,1.2c19.9,0,36.4,8.8,36.4,31.3H73.7c0.4-10.9-7.5-14.7-17.4-14.7
	c-8.2,0-17,3.1-17,12.1c0,9.7,16.4,12.1,23.1,13.7c15.2,3.9,26,9.8,26,27.2c0,23.2-21.1,32.1-39.6,32.1C22,102.9,8.4,91.7,8.4,68.3
	H28.6z"/>
<path class="st1" d="M139.1,1.2c26.2,0,43.1,14.4,43.1,41.6c0,31.9-19,60.1-53,60.1c-27.2,0-43.1-15.6-43.1-43
	C86,28.5,106.3,1.2,139.1,1.2 M129.4,84.9L129.4,84.9c20.9,0,31.4-22.3,31.4-40.7c0-13.6-6-25.2-21.6-25.2
	c-21.9,0-31.8,22.2-31.8,40.8C107.4,73.2,113.9,84.9,129.4,84.9"/>
<path class="st1" d="M188.7,68.3c-0.7,13.7,8.7,17.9,20.9,17.9c8.6,0,18.5-4.1,18.5-13.7c0-9.5-12.5-11.4-24.6-15.1
	C191.3,53.6,179,48,179,31.3c0-21.6,19.7-30.2,38.5-30.2c19.9,0,36.4,8.8,36.4,31.3h-20.3c0.4-10.9-7.5-14.7-17.4-14.7
	c-8.2,0-17,3.1-17,12.1c0,9.7,16.5,12.1,23.1,13.7c15.2,3.9,26,9.8,26,27.2c0,23.2-21.1,32.1-39.6,32.1c-26.8,0-40.4-11.1-40.4-34.5
	C168.3,68.3,188.7,68.3,188.7,68.3z"/>
<path class="st0" d="M390.1,100.6h-18.5l2.2-9.8h-0.3c-6.2,7.8-14.5,11.7-24.6,11.7c-13.3,0-20.5-6.7-20.5-18.9
	c0-2.9,1.5-9.7,2-12.1l8.7-41.2h19.3l-8.6,41.2c-0.5,2-1.2,6.7-1.2,8.6c0,4.2,4.8,7.2,9.2,7.2c11.7,0,17.7-9.8,19.7-19.6l7.9-37.4
	h19.3L390.1,100.6z"/>
<polygon class="st0" points="415.5,3.5 434.8,3.5 414.2,100.6 394.9,100.6 "/>
<path class="st0" d="M300.5,43.6c-6.7-1.6-23.1-4.1-23.1-13.7c0-9,8.8-12.1,17-12.1c9.9,0,17.8,3.8,17.4,14.7h20.3
	c0-22.4-16.6-31.3-36.4-31.3c-18.1,0-37.1,8-38.4,28c0.1,1.1,0.1,2.1,0.1,3.2v2.4c1.6,14,12.9,19.1,24.3,22.6
	c12.1,3.7,24.6,5.6,24.6,15.1c0,9.7-9.9,13.7-18.5,13.7c-12.2,0-21.6-4.2-20.9-17.9h-15.1c0,0.8,0.1,1.6,0.1,2.4
	c0,5-0.9,9.4-2.5,13.3c5.2,12.7,17.8,18.8,37.7,18.8c18.5,0,39.6-8.8,39.6-32.1C326.5,53.4,315.7,47.5,300.5,43.6"/>
<path class="st2" d="M20.9,115.9H28l5.3,31.8h-6.9l-1-7.1H13.5l-4,7.1H2.1L20.9,115.9z M16.2,135.4L16.2,135.4h8.5l-1.6-12.7H23
	L16.2,135.4z"/>
<path class="st2" d="M64.1,132.6c0-2.7-1.5-3.8-4.2-3.8c-4.8,0-6.5,5.8-6.5,9.8c0,2.8,1.2,5,4.4,5c2.8,0,4.4-2,5.1-4.3h6.3
	c-1.9,5.7-5.9,9-11.9,9c-6.4,0-10.2-3.2-10.2-9.9c0-7.8,4.7-14.4,13-14.4c5.6,0,10.2,2.5,10.3,8.6H64.1z"/>
<path class="st2" d="M73.2,131.6c0.8-5.8,5.7-7.6,10.9-7.6c4.1,0,9.7,0.9,9.6,6.1c0,1-0.2,2.4-0.5,3.9l-2,9.3
	c-0.2,0.8-0.3,2.2-0.3,3.1c0,0.4,0.1,0.9,0.2,1.3h-6.3v-2.3c-1.7,2-4.5,2.9-7,2.9c-5,0-7.5-2.9-7.5-6.1c0-4.4,3.3-7.2,8.8-7.8
	c6-0.7,8.8-0.4,8.8-3.3c0-2.3-2.4-2.8-4-2.8c-2.3,0-4.3,1.1-4.7,3.4L73.2,131.6L73.2,131.6z M86.5,136.6L86.5,136.6
	c-1.6,0.9-3.5,1-5.3,1.1c-2.4,0.3-4.7,0.8-4.7,3.7c0,1.7,1.6,2.6,3.5,2.6c3.9,0,5.2-2.7,5.9-5.2L86.5,136.6z"/>
<path class="st2" d="M110.9,131.4c0-2-1.2-3.1-3.6-3.1c-2.2,0-3.9,0.6-3.9,2.3c0,1,0.8,1.7,2.9,2.3l3.2,1c3.4,1.1,6.1,2.7,6.1,6.6
	c0,5.7-5.7,7.8-11,7.8c-4.5,0-9.8-1.8-9.8-7.2v-0.9h5.9v0.8c0,2.1,2.4,3.1,4.5,3.1c1.9,0,4-0.7,4-2.8c0-1.6-0.9-2.1-2.3-2.5
	l-4.9-1.6c-3.2-1-5-2.3-5-5.9c0-5.4,5.7-7.3,10.2-7.3c5,0,9.5,1.4,9.4,7.3L110.9,131.4L110.9,131.4z"/>
<path class="st2" d="M120.1,131.6c0.8-5.8,5.7-7.6,10.9-7.6c4.1,0,9.7,0.9,9.6,6.1c0,1-0.2,2.4-0.5,3.9l-2,9.3
	c-0.2,0.8-0.3,2.2-0.3,3.1c0,0.4,0.1,0.9,0.2,1.3h-6.3v-2.3c-1.7,2-4.5,2.9-7,2.9c-5,0-7.5-2.9-7.5-6.1c0-4.4,3.3-7.2,8.8-7.8
	c6-0.7,8.8-0.4,8.8-3.3c0-2.3-2.4-2.8-4-2.8c-2.3,0-4.3,1.1-4.7,3.4L120.1,131.6L120.1,131.6z M133.4,136.6L133.4,136.6
	c-1.6,0.9-3.5,1-5.3,1.1c-2.4,0.3-4.7,0.8-4.7,3.7c0,1.7,1.6,2.6,3.5,2.6c3.9,0,5.2-2.7,5.9-5.2L133.4,136.6z"/>
<path class="st2" d="M169.8,144.8L169.8,144.8c-1.5,2.4-4.2,3.5-7,3.5c-5.5,0-8.8-3.6-8.8-9.1c0-7.6,4.1-15.2,12.6-15.2
	c2.7,0,5.5,1.2,6.5,3.7h0.1l2.5-11.8h6.3l-6.7,31.8h-6.1L169.8,144.8z M160.4,138.4L160.4,138.4c0,2.8,1.5,5.1,4.5,5.1
	c4.7,0,6.9-5.8,6.9-9.8c0-2.9-1.5-5-4.5-5C162.5,128.8,160.4,134.3,160.4,138.4"/>
<path class="st2" d="M193.6,124c6.3,0,10.7,3.1,10.7,9.8c0,8.1-5,14.5-13.4,14.5c-6.4,0-10.6-3.3-10.6-9.9
	C180.4,130.6,185.4,124,193.6,124 M191.2,143.5L191.2,143.5c4.7,0,6.8-5.8,6.8-9.7c0-3.1-1.3-5.1-4.6-5.1c-4.6,0-6.7,5.7-6.7,9.6
	C186.7,141.1,188.2,143.5,191.2,143.5"/>
<path class="st2" d="M223.1,115.9h6.3l-2.4,11.2h0.1c2-2.1,3.8-3.1,6.8-3.1c5.8,0,8.3,4.5,8.3,9.8c0,7.1-4.1,14.5-11.9,14.5
	c-3.2,0-6.1-1-7.2-4.2H223l-0.8,3.6h-5.8L223.1,115.9z M224.6,138.7L224.6,138.7c0,2.8,1.7,4.9,4.6,4.9c4.8,0,6.8-5.7,6.8-9.6
	c0-2.9-1.2-5.1-4.5-5.1C226.5,128.8,224.6,134.6,224.6,138.7"/>
<path class="st2" d="M256.9,124c6.3,0,10.7,3.1,10.7,9.8c0,8.1-5,14.5-13.4,14.5c-6.4,0-10.6-3.3-10.6-9.9
	C243.7,130.6,248.7,124,256.9,124 M254.6,143.5L254.6,143.5c4.7,0,6.8-5.8,6.8-9.7c0-3.1-1.3-5.1-4.6-5.1c-4.6,0-6.7,5.7-6.7,9.6
	C250,141.1,251.6,143.5,254.6,143.5"/>
<path class="st2" d="M273.1,124.6h6.1l-0.7,3.3h0.1c1.9-2.6,4.8-3.9,8.1-3.9c2.8,0,5,1.2,5.6,4c1.6-2.4,4.9-4,7.8-4
	c3.6,0,7,1.9,7,5.8c0,1.4-0.4,2.9-0.7,4.3l-2.9,13.5h-6.3l3-14.6c0.1-0.7,0.2-1.2,0.2-1.6c0-1.4-1.2-2.4-2.8-2.4
	c-3.4,0-5.3,3.5-5.9,6.3l-2.6,12.3h-6.4l3-14.6c0.1-0.7,0.2-1.2,0.2-1.6c0-1.4-1.2-2.4-2.8-2.4c-3.4,0-5.3,3.5-5.9,6.3l-2.6,12.3
	h-6.3L273.1,124.6z"/>
<path class="st2" d="M314.5,115.9h6.3l-2.4,11.2h0.1c2-2.1,3.8-3.1,6.8-3.1c5.8,0,8.3,4.5,8.3,9.8c0,7.1-4.1,14.5-11.9,14.5
	c-3.2,0-6.1-1-7.2-4.2h-0.1l-0.8,3.6h-5.8L314.5,115.9z M315.9,138.7L315.9,138.7c0,2.8,1.7,4.9,4.6,4.9c4.8,0,6.8-5.7,6.8-9.6
	c0-2.9-1.2-5.1-4.5-5.1C317.8,128.8,315.9,134.6,315.9,138.7"/>
<path class="st2" d="M341.2,137.7c0,0.6,0,1,0,1.3c0,2.7,1.6,4.5,5.1,4.5c2.5,0,3.8-1.7,4.7-3.2h6.3c-2,5.2-5.3,7.9-11.9,7.9
	c-6.1,0-10.2-3.5-10.2-10.1c0-7.4,4.9-14.2,12.7-14.2c6.4,0,10.7,3.4,10.7,10.1c0,1.2-0.1,2.5-0.4,3.6L341.2,137.7L341.2,137.7z
	 M352.4,133.7L352.4,133.7c0-2.4-0.6-4.9-4.3-4.9c-3.6,0-5.3,2.3-6.3,4.9H352.4z"/>
<path class="st2" d="M363.7,124.6h6.4l-4.9,23h-6.4L363.7,124.6z M370.8,121.1L370.8,121.1h-6.4l1.2-5.2h6.4L370.8,121.1z"/>
<path class="st2" d="M374.2,124.6h6l-0.9,4.1l0.1,0.1c1.4-3.2,4.5-4.9,7.9-4.9c0.7,0,1.3,0,2,0.1l-1.3,6.1c-0.9-0.2-1.8-0.4-2.7-0.4
	c-4.9,0-6.6,3.7-7.4,7.6l-2.1,10.2h-6.3L374.2,124.6z"/>
<path class="st2" d="M400.1,124c6.3,0,10.7,3.1,10.7,9.8c0,8.1-5,14.5-13.4,14.5c-6.4,0-10.6-3.3-10.6-9.9
	C386.8,130.6,391.9,124,400.1,124 M397.7,143.5L397.7,143.5c4.7,0,6.8-5.8,6.8-9.7c0-3.1-1.3-5.1-4.6-5.1c-4.6,0-6.7,5.7-6.7,9.6
	C393.2,141.1,394.7,143.5,397.7,143.5"/>
</svg>
