<?xml version="1.0" encoding="UTF-8" standalone="no"?>
<!-- Created with Inkscape (http://www.inkscape.org/) -->

<svg
   xmlns:osb="http://www.openswatchbook.org/uri/2009/osb"
   xmlns:dc="http://purl.org/dc/elements/1.1/"
   xmlns:cc="http://creativecommons.org/ns#"
   xmlns:rdf="http://www.w3.org/1999/02/22-rdf-syntax-ns#"
   xmlns:svg="http://www.w3.org/2000/svg"
   xmlns="http://www.w3.org/2000/svg"
   xmlns:xlink="http://www.w3.org/1999/xlink"
   xmlns:sodipodi="http://sodipodi.sourceforge.net/DTD/sodipodi-0.dtd"
   xmlns:inkscape="http://www.inkscape.org/namespaces/inkscape"
   width="250"
   height="195"
   id="svg2"
   version="1.1"
   inkscape:version="0.48.5 r10040"
   sodipodi:docname="logo-fff.svg"
   inkscape:export-filename="C:\Users\estpablo\Pictures\logos\imbel\imbelblue.png"
   inkscape:export-xdpi="90"
   inkscape:export-ydpi="90">
  <defs
     id="defs4">
    <linearGradient
       id="linearGradient3200">
      <stop
         style="stop-color:#2a5ecc;stop-opacity:1;"
         offset="0"
         id="stop3202" />
      <stop
         style="stop-color:#002779;stop-opacity:1;"
         offset="1"
         id="stop3204" />
    </linearGradient>
    <linearGradient
       inkscape:collect="always"
       id="linearGradient3789">
      <stop
         style="stop-color:#ffffff;stop-opacity:1"
         offset="0"
         id="stop3791" />
      <stop
         style="stop-color:#ffffff;stop-opacity:0"
         offset="1"
         id="stop3793" />
    </linearGradient>
    <linearGradient
       osb:paint="gradient"
       id="linearGradient5334">
      <stop
         style="stop-color:#ffffff;stop-opacity:1"
         offset="0"
         id="stop5344" />
      <stop
         id="stop5346"
         offset="1"
         style="stop-color:#ffffff;stop-opacity:0" />
    </linearGradient>
    <linearGradient
       id="linearGradient5270">
      <stop
         style="stop-color:#000052;stop-opacity:1;"
         offset="0"
         id="stop5272" />
      <stop
         id="stop5282"
         offset="0.39085785"
         style="stop-color:#00004b;stop-opacity:1;" />
      <stop
         id="stop5280"
         offset="1"
         style="stop-color:#000040;stop-opacity:1;" />
    </linearGradient>
    <linearGradient
       id="linearGradient5230"
       osb:paint="gradient">
      <stop
         id="stop5290"
         offset="0"
         style="stop-color:#0044cf;stop-opacity:1;" />
      <stop
         style="stop-color:#003098;stop-opacity:1;"
         offset="0.25318867"
         id="stop3007" />
      <stop
         style="stop-color:#002b85;stop-opacity:1;"
         offset="0.50637734"
         id="stop3005" />
      <stop
         style="stop-color:#00226a;stop-opacity:1;"
         offset="0.65006095"
         id="stop3003" />
      <stop
         id="stop5288"
         offset="0.86023498"
         style="stop-color:#000f2e;stop-opacity:1;" />
      <stop
         style="stop-color:#000309;stop-opacity:1;"
         offset="1"
         id="stop5234" />
    </linearGradient>
    <radialGradient
       inkscape:collect="always"
       xlink:href="#linearGradient5334"
       id="radialGradient5332"
       gradientUnits="userSpaceOnUse"
       gradientTransform="matrix(-1.0035451,1.0035449,-1.5859491,-1.5859492,1103.5202,462.54477)"
       cx="274.26797"
       cy="318.68787"
       fx="274.26797"
       fy="318.68787"
       r="364.42242" />
    <linearGradient
       inkscape:collect="always"
       xlink:href="#linearGradient3789"
       id="linearGradient3795"
       x1="273.33929"
       y1="254.52008"
       x2="325.04019"
       y2="577.37726"
       gradientUnits="userSpaceOnUse" />
    <radialGradient
       inkscape:collect="always"
       xlink:href="#linearGradient3200"
       id="radialGradient3206"
       cx="302.14291"
       cy="524.16907"
       fx="302.14291"
       fy="524.16907"
       r="277.45801"
       gradientTransform="matrix(6.1308191e-6,-1.0225755,0.96453075,-2.8026187e-8,-217.7219,834.89756)"
       gradientUnits="userSpaceOnUse" />
  </defs>
  <sodipodi:namedview
     id="base"
     pagecolor="#ffffff"
     bordercolor="#666666"
     borderopacity="1.0"
     inkscape:pageopacity="0.0"
     inkscape:pageshadow="2"
     inkscape:zoom="2.8"
     inkscape:cx="158.56688"
     inkscape:cy="45.59119"
     inkscape:document-units="px"
     inkscape:current-layer="layer2"
     showgrid="false"
     inkscape:window-width="1920"
     inkscape:window-height="1018"
     inkscape:window-x="-8"
     inkscape:window-y="-8"
     inkscape:window-maximized="1"
     showguides="true"
     inkscape:guide-bbox="true">
    <sodipodi:guide
       orientation="0,1"
       position="302.14286,526.42857"
       id="guide3015" />
    <sodipodi:guide
       orientation="1,0"
       position="287.85714,569.28571"
       id="guide3017" />
  </sodipodi:namedview>
  <metadata
     id="metadata7">
    <rdf:RDF>
      <cc:Work
         rdf:about="">
        <dc:format>image/svg+xml</dc:format>
        <dc:type
           rdf:resource="http://purl.org/dc/dcmitype/StillImage" />
        <dc:title />
      </cc:Work>
    </rdf:RDF>
  </metadata>
  <g
     inkscape:groupmode="layer"
     id="layer2"
     inkscape:label="egrenagens"
     style="display:inline"
     transform="translate(0,-857.36218)">
    <path
       inkscape:connector-curvature="0"
       style="fill:none;stroke:#ffffff;stroke-width:2.66430473;stroke-linecap:square;stroke-linejoin:miter;stroke-miterlimit:4;stroke-opacity:1;stroke-dasharray:none;stroke-dashoffset:0;display:inline"
       d="m 92.876501,859.95447 -16.253432,2.13916 1.918951,14.48129 c -4.52338,1.07408 -8.898102,2.54393 -13.086633,4.35172 l -7.13054,-12.75108 -14.313502,8.00088 7.130535,12.76157 c -4.037595,2.84457 -7.792504,6.05738 -11.230597,9.58428 l -11.471779,-9.09144 -10.18199,12.85595 11.471779,9.08095 c -2.806346,4.40033 -5.198549,9.08878 -7.109567,14.01989 l -14.0932995,-3.84839 -4.3202674,15.81302 14.1142719,3.84839 c -0.695807,4.23881 -1.069581,8.58799 -1.069581,13.02372 0,0.3267 0.0068,0.64943 0.01049,0.97521 l -14.5337159,1.68826 1.8874953,16.29537 14.5232296,-1.67777 c 1.017402,4.60666 2.429366,9.06856 4.204921,13.3383 l -12.845456,6.96276 7.812134,14.41839 12.855945,-6.96281 c 2.810739,4.10371 6.002251,7.93761 9.510876,11.44031 l -9.206781,11.367 12.740594,10.3288 9.206782,-11.3565 c 4.523248,2.96 9.361997,5.4733 14.460315,7.4766 l -3.911309,14.0724 15.792043,4.3831 3.911313,-14.0723 c 4.344223,0.733 8.806566,1.1214 13.35927,1.122 l 1.499511,14.5442 16.305863,-1.6883 -1.49951,-14.5232 c 4.98023,-1.0332 9.78332,-2.5318 14.37642,-4.4461 l 6.96277,12.835 14.41836,-7.8226 -6.97325,-12.8455 c 4.06596,-2.7886 7.85972,-5.942 11.33546,-9.4165 l 11.34595,9.2278 10.33928,-12.7197 -11.34595,-9.22773 c 1.34151,-2.04393 2.59018,-4.15485 3.74354,-6.32311 l -16.07517,0 c -11.90737,17.28874 -31.84269,28.62704 -54.422791,28.62704 -36.46477,0 -66.020392,-29.55565 -66.020392,-66.02042 0,-36.46477 29.555622,-66.03088 66.020392,-66.03088 30.235741,0 55.739431,20.32481 63.566651,48.05773 l 14.19816,0 c -1.1551,-5.02111 -2.78049,-9.86167 -4.83408,-14.4708 l 12.66719,-7.26686 -8.16866,-14.21913 -12.67768,7.28783 c -2.84168,-3.93866 -6.03497,-7.60422 -9.53185,-10.95796 l 8.98657,-11.55567 -12.93983,-10.06664 -8.97609,11.54518 c -4.11128,-2.57461 -8.47594,-4.79475 -13.04469,-6.59575 l 3.9218,-14.07232 -15.79205,-4.40416 -3.92179,14.07233 c -4.37403,-0.74278 -8.86816,-1.12202 -13.453647,-1.12202 -0.751845,0 -1.497175,0.0108 -2.244024,0.0315 z"
       id="path3047"
       inkscape:export-filename="C:\Users\acicoord1\Pictures\logos\imbel\nova\preta.png"
       inkscape:export-xdpi="90"
       inkscape:export-ydpi="90"
       sodipodi:nodetypes="cccccccccccccccsccccccccccccccccccccccccccccccsssccccccccccccccscc" />
  </g>
  <g
     inkscape:groupmode="layer"
     id="layer4"
     inkscape:label="escrito"
     style="display:inline"
     transform="translate(0,-857.36218)">
    <g
       id="g3167"
       transform="matrix(0.35420037,0,0,0.35420037,-6.4626449,767.93509)"
       style="fill:#ffffff">
      <g
         id="g3163"
         style="fill:#ffffff">
        <path
           style="fill:#ffffff;fill-opacity:1;stroke:none"
           d="m 593.21875,424.875 -22.5,156.40625 -79.65625,0 4.28125,-15 56.4375,0 8.5625,-73.5625 -99.28125,0 -15.71875,121.0625 233.9375,0 5.375,-33.21875 -71.8125,0 20,-155.6875 -39.625,0 z m -406.34375,8 -21.71875,182.09375 38.125,0.25 10.875,-77.53125 43.1875,-26.5 -8.84375,103.28125 42.375,0 6.375,-73.75 49.5,-34.34375 -8.34375,107.0625 90.40625,0 16.90625,-120.9375 -61.875,0 8.34375,-59.625 -89.15625,54.8125 3.8125,-54.28125 -87.90625,58.8125 L 225,432.875 l -38.125,0 z M 497.96875,520 l 21.71875,0 -4,16.6875 -21.71875,0 4,-16.6875 z m -111.75,3.625 21.09375,0 -8,63.03125 -21.09375,0 8,-63.03125 z"
           id="path3030"
           inkscape:export-filename="C:\Users\acicoord1\Pictures\logos\imbel\nova\preta.png"
           inkscape:export-xdpi="90"
           inkscape:export-ydpi="90"
           inkscape:connector-curvature="0" />
        <path
           style="fill:#ffffff;fill-opacity:1;stroke:none"
           d="m 192.03572,391.11218 39.89552,0 -4,27.89286 -39.89552,0 z"
           id="rect3038"
           inkscape:connector-curvature="0"
           sodipodi:nodetypes="ccccc"
           inkscape:export-filename="C:\Users\acicoord1\Pictures\logos\imbel\nova\preta.png"
           inkscape:export-xdpi="90"
           inkscape:export-ydpi="90" />
      </g>
      <g
         style="font-size:178.08868408px;font-style:normal;font-weight:normal;text-align:start;text-anchor:start;fill:#ffffff;fill-opacity:1;font-family:Calibri"
         id="text3152">
        <path
           d="m 720.07224,455.6664 c -8e-5,4.75376 -0.88414,9.20307 -2.6522,13.34796 -1.76821,4.14504 -4.18852,7.73927 -7.26094,10.78271 -3.07256,3.04357 -6.69578,5.44939 -10.86967,7.21746 -4.17401,1.76819 -8.63781,2.65226 -13.39143,2.6522 -4.92763,6e-5 -9.4639,-0.85502 -13.60883,-2.56524 -4.14499,-1.7101 -7.71024,-4.05795 -10.69576,-7.04355 -2.98555,-2.98547 -5.3189,-6.53622 -7.00006,-10.65227 -1.68119,-4.11591 -2.52178,-8.63769 -2.52177,-13.56535 -1e-5,-4.75358 0.88406,-9.1884 2.6522,-13.30448 1.76812,-4.11588 4.18843,-7.69562 7.26094,-10.73923 3.07247,-3.0434 6.6812,-5.43472 10.82619,-7.17399 4.14494,-1.73902 8.62324,-2.6086 13.43492,-2.60872 4.92753,1.2e-4 9.4638,0.84071 13.60883,2.52177 4.1449,1.68129 7.71015,4.01464 10.69575,7.00006 2.98546,2.98565 5.31882,6.53641 7.00007,10.65228 1.6811,4.11608 2.52168,8.60887 2.52176,13.47839 z m -7.82616,0.52175 c -7e-5,-4.11589 -0.65225,-7.85506 -1.95654,-11.2175 -1.30443,-3.36225 -3.11604,-6.24634 -5.43484,-8.65226 -2.31892,-2.40571 -5.07257,-4.24631 -8.26095,-5.52179 -3.18849,-1.27526 -6.63779,-1.91295 -10.34792,-1.91307 -4.00008,1.2e-4 -7.60881,0.69578 -10.82619,2.08698 -3.21746,1.39143 -5.9856,3.30449 -8.30443,5.73919 -2.31889,2.43491 -4.10151,5.26102 -5.34788,8.47834 -1.24641,3.21752 -1.8696,6.65233 -1.86958,10.30445 -2e-5,4.05809 0.65216,7.76827 1.95654,11.13054 1.30433,3.36243 3.11594,6.24651 5.43483,8.65226 2.31884,2.40589 5.07248,4.26097 8.26095,5.56527 3.1884,1.30442 6.63771,1.9566 10.34793,1.95654 3.99999,6e-5 7.62321,-0.71009 10.86967,-2.13046 3.24635,-1.42023 6.01449,-3.33329 8.30443,-5.73918 2.28981,-2.40575 4.05794,-5.21737 5.3044,-8.43487 1.24631,-3.21734 1.86951,-6.65215 1.86958,-10.30444 z m -10.26097,15.91319 c -6e-5,0.23196 -0.0435,0.44936 -0.13044,0.65218 -0.087,0.20298 -0.30441,0.34791 -0.65218,0.43479 -0.34789,0.087 -0.84064,0.15949 -1.47827,0.21739 -0.63775,0.058 -1.50732,0.087 -2.60872,0.087 -0.98557,7e-5 -1.78268,-0.0289 -2.39133,-0.087 -0.60875,-0.0579 -1.10151,-0.15935 -1.47827,-0.30435 -0.37687,-0.14485 -0.66673,-0.34775 -0.86958,-0.6087 -0.20295,-0.2608 -0.36237,-0.62312 -0.47826,-1.08696 l -1.82611,-6.00006 c -0.69571,-2.14487 -1.5218,-3.63764 -2.47828,-4.47831 -0.95658,-0.8405 -2.39138,-1.26079 -4.30439,-1.26088 l -2.34785,0 0,12.17403 c -4e-5,0.63776 -0.24642,1.07255 -0.73914,1.30436 -0.4928,0.23196 -1.63773,0.3479 -3.43482,0.34783 -1.79715,7e-5 -2.98556,-0.11587 -3.56525,-0.34783 -0.57974,-0.23181 -0.8696,-0.6666 -0.86957,-1.30436 l 0,-31.21769 c -3e-5,-1.27527 0.31881,-2.27528 0.95653,-3.00003 0.63765,-0.72454 1.59418,-1.08686 2.86959,-1.08697 l 10.0001,0 c 2.31882,1.1e-4 4.36231,0.20301 6.13049,0.6087 1.76808,0.40591 3.27534,1.0436 4.52179,1.91307 1.24633,0.86967 2.18837,1.95664 2.82611,3.2609 0.63763,1.30446 0.95647,2.8552 0.95653,4.65222 -6e-5,2.78273 -0.75369,4.94217 -2.26089,6.47832 -1.50732,1.53634 -3.53632,2.6233 -6.08701,3.2609 1.39126,0.46386 2.69562,1.24648 3.91308,2.34785 1.21734,1.10154 2.26083,2.75373 3.13046,4.95657 l 2.08698,5.56527 c 0.40574,1.33342 0.60864,2.17401 0.6087,2.52176 z M 691.2024,448.01415 c -5e-5,-0.63759 -0.087,-1.24629 -0.26087,-1.8261 -0.17397,-0.57962 -0.50731,-1.08687 -1.00001,-1.52175 -0.49281,-0.43469 -1.14499,-0.76803 -1.95655,-1.00001 -0.81164,-0.23179 -1.82615,-0.34773 -3.0435,-0.34783 l -4.00004,0 0,9.73922 3.82612,0 c 2.43476,9e-5 4.11594,-0.46368 5.04353,-1.39132 0.92749,-0.92745 1.39127,-2.14485 1.39132,-3.65221 z"
           style="font-variant:normal;font-stretch:normal;fill:#ffffff;font-family:Calibri;-inkscape-font-specification:Calibri"
           id="path3018" />
      </g>
    </g>
  </g>
</svg>
